# xmcd
#
# Track frame offsets:
#	150
#	14728
#	33380
#	48372
#	65702
#	84638
#	108226
#	122851
#	141472
#	156475
#	173813
#	192741
#
# Disc length: 2884 seconds
#
# Revision: 1
# Processed by: cddbd v1.5.2PL0 Copyright (c) Steve Scherf et al.
# Submitted via: audiograbber 1.83.01
#
DISCID=b60b420c
DTITLE=Mix - cb_20314
DYEAR=1900
DGENRE=Country
TTITLE0=Karma  (Vocals)
TTITLE1=May Be - My Be Not  (Vocals)
TTITLE2=Jezebel  (Vocals)
TTITLE3=Ready To Fall  (Vocals)
TTITLE4=When You Lie Next To Me  (Vocals)
TTITLE5=Party On The Patio  (Vocals)
TTITLE6=Karma
TTITLE7=May Be - My Be Not
TTITLE8=Jezebel 
TTITLE9=Ready To Fall
TTITLE10=When You Lie Next To Me
TTITLE11=Party On The Patio
EXTD=
EXTT0=
EXTT1=
EXTT2=
EXTT3=
EXTT4=
EXTT5=
EXTT6=
EXTT7=
EXTT8=
EXTT9=
EXTT10=
EXTT11=
PLAYORDER=
